REM DIRINDEX 1\3,1\4,1\5,1\6,1\2\7,1\2\8,1\2\9,1\10
REM DIRNAME folder01,folder02,folder03,folder04,folder05,folder06,folder07,folder08,folder09,folder10
TITLE ""
FILE "1-34 Level 2-291-300.mp3" MP3
  TRACK 01 AUDIO
    TITLE "0:"
    INDEX 01 00:00:00
  TRACK 02 AUDIO
    TITLE "7:cjc056_0992"
    INDEX 01 00:00:05
  TRACK 03 AUDIO
    TITLE "0:"
    INDEX 01 00:00:58
  TRACK 04 AUDIO
    TITLE "8:cjc056_0993"
    INDEX 01 00:01:09
  TRACK 05 AUDIO
    TITLE "0:"
    INDEX 01 00:03:53
  TRACK 06 AUDIO
    TITLE "9:cjc056_0994"
    INDEX 01 00:03:64
  TRACK 07 AUDIO
    TITLE "0:"
    INDEX 01 00:06:65
  TRACK 08 AUDIO
    TITLE "8:cjc056_0995"
    INDEX 01 00:07:19
  TRACK 09 AUDIO
    TITLE "0:"
    INDEX 01 00:09:08
  TRACK 10 AUDIO
    TITLE "9:cjc056_0996"
    INDEX 01 00:09:26
  TRACK 11 AUDIO
    TITLE "0:"
    INDEX 01 00:11:50
  TRACK 12 AUDIO
    TITLE "7:cjc056_0997"
    INDEX 01 00:12:28
  TRACK 13 AUDIO
    TITLE "0:"
    INDEX 01 00:13:33
  TRACK 14 AUDIO
    TITLE "8:cjc056_0998"
    INDEX 01 00:13:51
  TRACK 15 AUDIO
    TITLE "0:"
    INDEX 01 00:15:23
  TRACK 16 AUDIO
    TITLE "9:cjc056_0999"
    INDEX 01 00:15:40
  TRACK 17 AUDIO
    TITLE "0:"
    INDEX 01 00:18:19
  TRACK 18 AUDIO
    TITLE "7:cjc056_1000"
    INDEX 01 00:18:72
  TRACK 19 AUDIO
    TITLE "0:"
    INDEX 01 00:19:73
  TRACK 20 AUDIO
    TITLE "8:cjc056_1001"
    INDEX 01 00:20:14
  TRACK 21 AUDIO
    TITLE "0:"
    INDEX 01 00:22:40
  TRACK 22 AUDIO
    TITLE "9:cjc056_1002"
    INDEX 01 00:22:54
  TRACK 23 AUDIO
    TITLE "0:"
    INDEX 01 00:26:22
  TRACK 24 AUDIO
    TITLE "7:cjc056_1003"
    INDEX 01 00:26:73
  TRACK 25 AUDIO
    TITLE "0:"
    INDEX 01 00:28:02
  TRACK 26 AUDIO
    TITLE "8:cjc056_1004"
    INDEX 01 00:28:19
  TRACK 27 AUDIO
    TITLE "0:"
    INDEX 01 00:30:08
  TRACK 28 AUDIO
    TITLE "9:cjc056_1005"
    INDEX 01 00:30:26
  TRACK 29 AUDIO
    TITLE "0:"
    INDEX 01 00:32:66
  TRACK 30 AUDIO
    TITLE "7:cjc056_1006"
    INDEX 01 00:33:42
  TRACK 31 AUDIO
    TITLE "0:"
    INDEX 01 00:34:42
  TRACK 32 AUDIO
    TITLE "8:cjc056_1007"
    INDEX 01 00:34:57
  TRACK 33 AUDIO
    TITLE "0:"
    INDEX 01 00:36:56
  TRACK 34 AUDIO
    TITLE "9:cjc056_1008"
    INDEX 01 00:36:72
  TRACK 35 AUDIO
    TITLE "0:"
    INDEX 01 00:40:19
  TRACK 36 AUDIO
    TITLE "7:cjc056_1009"
    INDEX 01 00:40:72
  TRACK 37 AUDIO
    TITLE "0:"
    INDEX 01 00:42:02
  TRACK 38 AUDIO
    TITLE "8:cjc056_1010"
    INDEX 01 00:42:19
  TRACK 39 AUDIO
    TITLE "0:"
    INDEX 01 00:43:74
  TRACK 40 AUDIO
    TITLE "9:cjc056_1011"
    INDEX 01 00:44:16
  TRACK 41 AUDIO
    TITLE "0:"
    INDEX 01 00:46:56
  TRACK 42 AUDIO
    TITLE "8:cjc056_1012"
    INDEX 01 00:47:09
  TRACK 43 AUDIO
    TITLE "0:"
    INDEX 01 00:48:65
  TRACK 44 AUDIO
    TITLE "9:cjc056_1013"
    INDEX 01 00:49:06
  TRACK 45 AUDIO
    TITLE "0:"
    INDEX 01 00:52:04
  TRACK 46 AUDIO
    TITLE "7:cjc056_1014"
    INDEX 01 00:52:59
  TRACK 47 AUDIO
    TITLE "0:"
    INDEX 01 00:53:72
  TRACK 48 AUDIO
    TITLE "8:cjc056_1015"
    INDEX 01 00:54:11
  TRACK 49 AUDIO
    TITLE "0:"
    INDEX 01 00:56:61
  TRACK 50 AUDIO
    TITLE "9:cjc056_1016"
    INDEX 01 00:56:72
  TRACK 51 AUDIO
    TITLE "0:"
    INDEX 01 00:59:63
  TRACK 52 AUDIO
    TITLE "7:cjc056_1017"
    INDEX 01 01:00:39
  TRACK 53 AUDIO
    TITLE "0:"
    INDEX 01 01:01:48
  TRACK 54 AUDIO
    TITLE "8:cjc056_1018"
    INDEX 01 01:01:60
  TRACK 55 AUDIO
    TITLE "0:"
    INDEX 01 01:03:57
  TRACK 56 AUDIO
    TITLE "9:cjc056_1019"
    INDEX 01 01:04:00
  TRACK 57 AUDIO
    TITLE "0:"
    INDEX 01 01:06:49
  TRACK 58 AUDIO
    TITLE "7:cjc056_1020"
    INDEX 01 01:07:27
  TRACK 59 AUDIO
    TITLE "0:"
    INDEX 01 01:08:29
  TRACK 60 AUDIO
    TITLE "8:cjc056_1021"
    INDEX 01 01:08:42
  TRACK 61 AUDIO
    TITLE "0:"
    INDEX 01 01:09:69
  TRACK 62 AUDIO
    TITLE "9:cjc056_1022"
    INDEX 01 01:10:08
  TRACK 63 AUDIO
    TITLE "0:"
    INDEX 01 01:11:51
  TRACK 64 AUDIO
    TITLE "8:cjc056_1023"
    INDEX 01 01:12:03
  TRACK 65 AUDIO
    TITLE "0:"
    INDEX 01 01:12:66
  TRACK 66 AUDIO
    TITLE "9:cjc056_1024"
    INDEX 01 01:13:04
  TRACK 67 AUDIO
    TITLE "0:"
    INDEX 01 01:14:27
  TRACK 68 AUDIO
    TITLE "7:cjc056_1025"
    INDEX 01 01:15:03
  TRACK 69 AUDIO
    TITLE "0:"
    INDEX 01 01:15:70
  TRACK 70 AUDIO
    TITLE "8:cjc056_1026"
    INDEX 01 01:16:12
  TRACK 71 AUDIO
    TITLE "0:"
    INDEX 01 01:17:69
  TRACK 72 AUDIO
    TITLE "9:cjc056_1027"
    INDEX 01 01:18:07
  TRACK 73 AUDIO
    TITLE "0:"
    INDEX 01 01:19:70
